<svg xmlns="http://www.w3.org/2000/svg" width="24.273" height="24.273" viewBox="0 0 24.273 24.273">
  <g id="Bandage" transform="translate(-3.112 12.663) rotate(-45)">
    <path id="Path_162" data-name="Path 162" d="M2.851,6.558H19.459a3.8,3.8,0,0,1,3.8,3.8h0a3.8,3.8,0,0,1-3.8,3.806H2.851a3.8,3.8,0,0,1-3.8-3.806h0a3.8,3.8,0,0,1,3.8-3.8Z" transform="translate(0 0.046)" fill="none" stroke="#015eaa" stroke-linecap="round" stroke-linejoin="round" stroke-width="1.25"/>
    <path id="Path_163" data-name="Path 163" d="M8,6.117h4.836A1.382,1.382,0,0,1,14.217,7.5v5.7a1.382,1.382,0,0,1-1.382,1.382H8A1.382,1.382,0,0,1,6.618,13.2V7.5A1.382,1.382,0,0,1,8,6.117Z" transform="translate(0.798 0)" fill="none" stroke="#015eaa" stroke-linecap="round" stroke-linejoin="round" stroke-width="1.25"/>
    <path id="Path_164" data-name="Path 164" d="M10.757,8.191a.691.691,0,1,1-.691-.691A.691.691,0,0,1,10.757,8.191Z" transform="translate(1.088 0.146)" fill="#015eaa"/>
    <path id="Path_165" data-name="Path 165" d="M12.632,10.066a.691.691,0,1,1-.691-.691A.691.691,0,0,1,12.632,10.066Z" transform="translate(1.286 0.343)" fill="#015eaa"/>
    <path id="Path_166" data-name="Path 166" d="M8.882,10.066a.691.691,0,1,1-.691-.691A.691.691,0,0,1,8.882,10.066Z" transform="translate(0.891 0.343)" fill="#015eaa"/>
    <path id="Path_167" data-name="Path 167" d="M10.757,11.941a.691.691,0,1,1-.691-.691A.691.691,0,0,1,10.757,11.941Z" transform="translate(1.088 0.541)" fill="#015eaa"/>
  </g>
</svg>
