<svg xmlns="http://www.w3.org/2000/svg" width="20" height="19.984" viewBox="0 0 20 19.984">
  <path id="Drug_icon" d="M18.486,1.749l-.25-.25a4.726,4.726,0,0,0-3.5-1.5,5.215,5.215,0,0,0-3.622,1.5L1.5,11.116a4.977,4.977,0,0,0,0,7.119l.25.25a4.726,4.726,0,0,0,3.5,1.5,5.215,5.215,0,0,0,3.622-1.5L18.61,8.743a4.939,4.939,0,0,0-.125-6.995Zm-.874,6.245L12.74,12.865l-4.372-4.5L3.622,13.115a5.128,5.128,0,0,0-1.249,4.372,3.77,3.77,0,0,1,0-5.371l9.742-9.742a3.4,3.4,0,0,1,2.623-1.124,3.875,3.875,0,0,1,2.748,1.124l.25.25a3.793,3.793,0,0,1,1,2.623,3.875,3.875,0,0,1-1.124,2.748Z" fill="#015eaa"/>
</svg>
