<svg xmlns="http://www.w3.org/2000/svg" width="24.212" height="23.77" viewBox="0 0 24.212 23.77">
  <g id="Respirator" transform="translate(-50.288 -1172.759)">
    <path id="outline-masks" d="M24.185,9a3.02,3.02,0,0,0-3,2.784c-2.276-.605-3.438-2.179-6.077-2.179s-3.8,1.574-6.077,2.179A3.019,3.019,0,0,0,3,12.027v.605c0,7.264,4.358,9.455,7.893,9.661a7.8,7.8,0,0,0,8.426,0c3.535-.206,7.893-2.4,7.893-9.661v-.605A3.027,3.027,0,0,0,24.185,9ZM4.816,12.632v-.605a1.211,1.211,0,1,1,2.421,0v3.632A7.941,7.941,0,0,0,8.46,19.872C6.62,19.012,4.816,17.051,4.816,12.632Zm4.237,3.027v-2a10.988,10.988,0,0,0,3.22-1.308,5.516,5.516,0,0,1,2.833-.932,5.422,5.422,0,0,1,2.833.944,11.329,11.329,0,0,0,3.22,1.308v2a6.053,6.053,0,1,1-12.106-.012ZM25.4,12.632c0,4.419-1.8,6.38-3.644,7.24a7.835,7.835,0,0,0,1.223-4.213V12.027a1.211,1.211,0,1,1,2.421,0ZM13.52,14.424a7.944,7.944,0,0,1-2.046.92V14.085a7.855,7.855,0,0,0,1.429-.7,4.034,4.034,0,0,1,2.2-.751,3.919,3.919,0,0,1,2.179.751,7.735,7.735,0,0,0,1.453.714v1.259a7.923,7.923,0,0,1-2.07-.944,2.938,2.938,0,0,0-1.562-.569A2.968,2.968,0,0,0,13.52,14.424Z" transform="translate(47.288 1163.759)" fill="#015eaa"/>
    <ellipse id="Ellipse_104" data-name="Ellipse 104" cx="2.108" cy="2.108" rx="2.108" ry="2.108" transform="translate(60.285 1180.023)" fill="#015eaa"/>
    <rect id="Rectangle_342" data-name="Rectangle 342" width="1.979" height="13.399" transform="translate(61.402 1183.131)" fill="#015eaa"/>
  </g>
</svg>
