<svg xmlns="http://www.w3.org/2000/svg" width="20.698" height="23.771" viewBox="0 0 20.698 23.771">
  <path id="Surgery" d="M13.819.274l-2.372,4.8H6.812V6.8h5.714L13.6,4.585l2.452,6.523L19.318,6.8H23.2V5.071H18.454L16.54,7.55,13.819.273ZM4.657,9.383A2.154,2.154,0,0,0,2.5,11.54v12.5H6.812V22.319H18.886v1.725H23.2V14.557a2.6,2.6,0,0,0-2.587-2.587H10.262v.486a3.305,3.305,0,0,0-3.45,0V11.54A2.153,2.153,0,0,0,4.657,9.383Zm0,1.725a.523.523,0,0,1,.432.432v7.33H21.475v3.45h-.862V20.594H5.087v1.725H4.225V11.54A.523.523,0,0,1,4.657,11.108ZM8.538,13.7A1.725,1.725,0,1,1,6.813,15.42,1.712,1.712,0,0,1,8.538,13.7Zm3.45,0h8.624a.859.859,0,0,1,.862.862v2.587H11.987V13.7Z" transform="translate(-2.5 -0.273)" fill="#015eaa"/>
</svg>
